<svg xmlns="http://www.w3.org/2000/svg" viewBox="0 0 79.77 68.17"><defs><style>.cls-1{fill:none;stroke:#000;stroke-linecap:round;stroke-linejoin:round;fill-rule:evenodd;}</style></defs><g id="OBJECTS"><path class="cls-1" d="M8.36,39A25.78,25.78,0,0,0,.65,52.59a26.19,26.19,0,0,0-.12,11A22.92,22.92,0,0,0,2.12,68a.21.21,0,0,0,.27.13.22.22,0,0,0,.13-.28,35.42,35.42,0,0,1-.69-4.51,31.5,31.5,0,0,1,.4-10.44A24.69,24.69,0,0,1,9.46,40.14a29,29,0,0,1,18.1-7.54c-3.07,8.81-2,18.24,3.68,24.74a15.17,15.17,0,0,0,13.62,5.18c4.79-.85,8.7-4.5,8.76-11.15.16-10.86-8.06-17.88-18.27-19.85a31.74,31.74,0,0,0-5-.54c.35-.83.75-1.64,1.19-2.45A33.6,33.6,0,0,1,54.79,11.72a46.17,46.17,0,0,1,10.72-.83,50.31,50.31,0,0,1,10.71,1.48.57.57,0,0,0,.71-.39.58.58,0,0,0-.4-.71,46.59,46.59,0,0,0-10.94-2.1A43.29,43.29,0,0,0,54.44,10,35.44,35.44,0,0,0,29.79,27.58,30.3,30.3,0,0,0,28.17,31,30.63,30.63,0,0,0,8.36,39ZM32.81,56A13.12,13.12,0,0,0,44.5,60.41c3.94-.66,7.13-3.61,7.3-9.08.23-10-7.38-16.4-16.76-18.24a29.28,29.28,0,0,0-5.33-.54C26.62,40.86,27.4,49.84,32.81,56Z"/><path class="cls-1" d="M74.83,11.89,62.91,15.71A36.78,36.78,0,0,0,58.63,17a1.58,1.58,0,0,0-.55.3c-.41.43-.46.65-.38.85.35,1,1.61.31,5.74-.83l12-3.42A19.61,19.61,0,0,0,79,12.85a1.42,1.42,0,0,0,.78-1.27,2.47,2.47,0,0,0-1.12-1.26c-1.47-.89-5.15-3-5.48-3.2l-5-2.69L60.15.06a.38.38,0,0,0-.52.12.37.37,0,0,0,.12.51L67.3,6l4.8,3,4.51,2.7C75.82,11.8,74.94,11.86,74.83,11.89Z"/></g></svg>