<?xml version="1.0" encoding="UTF-8"?>
<svg id="Layer_1" data-name="Layer 1" xmlns="http://www.w3.org/2000/svg" viewBox="0 0 736 744">
  <defs>
    <style>
      .cls-1 {
        fill: #000;
        stroke-width: 0px;
      }
    </style>
  </defs>
  <path class="cls-1" d="M204,312c-13.04-71.51,1.44-160.05,75.56-191.63,50.57-22.68,139.11-16.65,186.07,12.79,39.84,24.24,56.01,66.5,54.4,111.67-.61,29.18-7.98,57.64-16.5,85.31-2.84,11.86.85,23.5,8.13,33.18,1.99,3.02,4.59,5.69,5.97,9.28,1.94,5.25-.74,11.62-5.94,13.77-1.28.54-3,.94-4.33,1.33,0,0-7.55,2.11-7.55,2.11l-7.55,2.11-.94.26-.47.13c-1.2.26-2.02,1.55-1.69,2.75.68,2.02,1.77,5.06,2.48,7.09.2.63.47,1.25.69,2.06,1.97,6.04-2.48,12.95-8.8,13.64-2,0-3.28,2.27-2.13,3.94,0,.02.05.07.1.15l.14.2,2.27,3.2c3.61,4.33,3.24,10.91-1.01,14.66-.63.65-2.84,2.8-3.48,3.45,0,0-.7.69-.7.69,0,0-.32.32-.32.32l-.14.15c-.41.45-.62,1.06-.69,1.67,0,0-.32,2-.32,2-3.16,17.8-11.27,48.67-34.2,47.14-5.76-.44-10.69-3.36-15.65-5.89-7-3.63-13.95-7.4-20.74-11.43-2.06-1.3-4.24-2.55-6.52-3.35-9.06-3.32-19.89-.45-26.03,7.12-13.47,15.71-19.08,36.82-20.02,57.27-.54,10.4.03,20.86,1.32,31.24-1.78-10.3-2.86-20.76-2.82-31.28.12-21.05,5.05-42.93,18.55-59.7,6.89-9.09,19.71-12.9,30.56-9.3,2.63.8,5.17,2.18,7.52,3.55,2.26,1.26,4.54,2.5,6.84,3.71,6.27,3.32,12.78,6.51,19.19,9.57,13.74,6.83,22.41-1.91,27.78-14.31,3.73-8.59,5.87-18.07,7.15-27.38.11-.97.35-1.91.71-2.82.64-1.68,1.87-3.07,3.15-4.31,0,0,2.73-2.81,2.73-2.81.57-.64,1.35-1.23,1.64-1.95.37-.86.25-1.89-.31-2.64,0,0-.57-.78-.57-.78l-2.33-3.16s-.33-.45-.33-.45c-2.34-3.21-2.56-7.78-.59-11.22,1.55-2.89,4.66-4.99,7.94-5.36,1.21-.1,2.21-1.23,2.18-2.42-.06-.57-.13-.74-.38-1.41-.86-2.32-2.01-5.54-2.86-7.85-1.61-4.36-.04-9.59,3.74-12.32,1.45-1.14,3.23-1.69,4.98-2.17,4.62-1.36,12.33-3.59,16.94-4.94,0,0,.94-.27.94-.27.19-.08.24-.08.35-.13.97-.43,1.43-1.64,1.05-2.62-.63-1.32-1.53-2.42-2.53-3.8-12.75-15.99-17.13-31.89-10.2-51.66,4.61-14.74,8.38-29.81,10.83-45.03,13.51-83.47-18.56-138.61-103.59-154.9-49.35-8.76-105.78-9.35-147.75,21.77-50.84,38.7-59.17,110.47-51.92,170h0Z"/>
  <path class="cls-1" d="M362.81,587.31c2.81,6.71-1.2,11.15-8.15,8.92-2.84-6.72,1.22-11.12,8.15-8.92h0Z"/>
</svg>