<svg xmlns="http://www.w3.org/2000/svg" viewBox="0 0 119.85 55.07"><defs><style>.cls-1{fill-rule:evenodd;}</style></defs><g id="OBJECTS"><g id="body"><path class="cls-1" d="M112.38,41.82c0-.08,0-.18-.16-.3a3,3,0,0,0-.82-.43,10.79,10.79,0,0,0-1.65-.36L90,38.33A292.53,292.53,0,0,1,54,31.54C49.3,30.33,44.62,29,40,27.53,33,25.39,26,23.08,19.19,20.27a.46.46,0,0,0-.38.84,187.94,187.94,0,0,0,20.35,8.81c4.65,1.67,9.38,3.08,14.14,4.36a276.33,276.33,0,0,0,36.3,7c4.63.6,9.28,1.31,14,1.62,2,.14,4,.13,6,.15a7.31,7.31,0,0,0,1.73-.14,2,2,0,0,0,1-.42c.47-.47.46-.44.33-.54a.18.18,0,0,0-.16-.18A.18.18,0,0,0,112.38,41.82Zm-.07.11s0,0,0,0Z"/></g><g id="head"><path class="cls-1" d="M14.64,20.61c4-.16,9.16-.3,10-.34a31.35,31.35,0,0,0,3.56-.52,16,16,0,0,0,3.36-.89.74.74,0,0,0,.32-.31c.24-.32,0-.45.16-.38l0,0c.88.43,1-.53-.75-1.1a13,13,0,0,0-3.49.07c-1.56.12-3,.38-3.29.39-1.13,0-9.78,0-13.29.1a15.05,15.05,0,0,0-1.51.12,1.62,1.62,0,0,0-1.15.69,1.66,1.66,0,0,0,0,2,10.9,10.9,0,0,0,2.48,1.76c2.46,1.39,4.85,2.91,7.31,4.28s5,2.63,7.59,3.92a1,1,0,0,0,1-1.69c-2.34-1.62-4.59-3.34-7-4.9C18.29,22.72,16.47,21.65,14.64,20.61Z"/></g></g></svg>