<svg xmlns="http://www.w3.org/2000/svg" viewBox="0 0 119.85 57.23"><defs><style>.cls-1{fill-rule:evenodd;}</style></defs><g id="OBJECTS"><g id="body"><path class="cls-1" d="M60.46,27.75a17.33,17.33,0,0,0-2.07,4.56,10.63,10.63,0,0,0-.23,5.13,6.22,6.22,0,0,0,3.05,4.11,5,5,0,0,0,5.1-.12A5.12,5.12,0,0,0,68.86,37a13.21,13.21,0,0,0-2.06-6.94A21.49,21.49,0,0,0,64,26.47c5.85-6.75,14.83-8.09,23.41-5.63a36.67,36.67,0,0,1,12.7,6.78,35.65,35.65,0,0,1,9.37,11.14.28.28,0,0,0,.38.13.29.29,0,0,0,.14-.38,34.14,34.14,0,0,0-8.7-12.3A34.86,34.86,0,0,0,88,18.86C78.67,16.11,68.9,17.7,62.5,25a25.42,25.42,0,0,0-4.12-2.93,32.55,32.55,0,0,0-10.91-3.81,44.57,44.57,0,0,0-15.66.13,31.18,31.18,0,0,0-14.28,6.47,28.3,28.3,0,0,0-3.77,3.81,23.42,23.42,0,0,0-2.86,4.54A18.79,18.79,0,0,0,10,35.31c-.16.48-.29,1-.41,1.44a7.07,7.07,0,0,0-.21,1,1.57,1.57,0,0,0,.1.76l.26.12a.12.12,0,0,0,0-.16h0l0,0,.58-1.5,1.56-3.23a25,25,0,0,1,2.93-4.16A30.8,30.8,0,0,1,18.44,26a29.85,29.85,0,0,1,13.63-6.24,43.61,43.61,0,0,1,15.19-.2,31.14,31.14,0,0,1,10.49,3.65A23.41,23.41,0,0,1,61.69,26Q61,26.83,60.46,27.75Zm1.75,1.13a15.64,15.64,0,0,0-1.94,4,8.92,8.92,0,0,0-.35,4.22,4.49,4.49,0,0,0,2.09,3,3.54,3.54,0,0,0,3.55,0,3.76,3.76,0,0,0,1.92-3.2,11.63,11.63,0,0,0-1.82-6.17,20.56,20.56,0,0,0-2.47-3.28C62.85,27.93,62.52,28.39,62.21,28.88Z"/></g><g id="head"><path class="cls-1" d="M109,38.75l-.17-.62c-.43-2-.89-4-1.19-6.07-.13-.89-.15-1.76-.28-2.65a.29.29,0,0,1,.2-.36.29.29,0,0,1,.36.19,20.38,20.38,0,0,1,1.13,2.47c.69,1.94,1,4,1.61,6,0,.12.49,1.73.62,2.39a1.22,1.22,0,0,1-.66,1.37,2.71,2.71,0,0,1-1.33-.42c-1.51-.86-5.14-3.16-5.59-3.41l-1.85-1.1c-.91-.45-.84-1.24-.4-1.34a1.68,1.68,0,0,1,1,.21l2,.9C104.78,36.45,107.23,37.8,109,38.75Z"/></g></g></svg>