<svg xmlns="http://www.w3.org/2000/svg" viewBox="0 0 93.58 119.85"><defs><style>.cls-1{fill-rule:evenodd;}</style></defs><g id="OBJECTS"><g id="body"><path class="cls-1" d="M71,94.73c-.17-.13-.18,0-.28-.21s0-.48,0-.75c.07-2.38.14-6,.11-8.38a93,93,0,0,0-2.68-25.85A57.14,57.14,0,0,0,56.56,36.76c-7-8.3-13.44-9.72-18.56-6.71-3.33,1.94-6,5.63-8.08,10.27a45.93,45.93,0,0,0-3,8.8.63.63,0,0,1-.72.53.63.63,0,0,1-.54-.72,38.65,38.65,0,0,1,2.75-11.85,20.74,20.74,0,0,1,7.94-9.77c6.09-3.66,14.07-2.4,22.34,7.66A59.66,59.66,0,0,1,70.44,59a94.36,94.36,0,0,1,2.2,26.47c-.19,2.37-.56,6-.87,8.41,0,.27,0,.56-.11.75s-.12.06-.31.16a.17.17,0,0,1-.33,0Z"/></g><g id="head"><path class="cls-1" d="M26.15,48.34,25.5,45l-1.28-5.81a.65.65,0,0,0-.72-.58.64.64,0,0,0-.57.72l.08,6,.15,3.4c.16,2,.35,3.77.75,4.36.62.92,2,1.73,3.8-.56.52-.69,3.09-3.61,4.83-5.83a23.24,23.24,0,0,0,1.37-1.9c.32-.48.58-1.73-.84-1.77a6,6,0,0,0-2.75,1.47A27.33,27.33,0,0,0,26.19,49,5,5,0,0,0,26.15,48.34Z"/></g></g></svg>