<svg xmlns="http://www.w3.org/2000/svg" viewBox="0 0 119.85 74.5"><defs><style>.cls-1{fill-rule:evenodd;}</style></defs><g id="OBJECTS"><g id="body"><path class="cls-1" d="M33.16,33.6A22.19,22.19,0,0,0,22.8,52.45a18.16,18.16,0,0,0,.57,3.88.18.18,0,0,0,.36,0,28.84,28.84,0,0,1,.16-3.8,26.27,26.27,0,0,1,2-8.46,20.61,20.61,0,0,1,8-9.28,24.11,24.11,0,0,1,16-3.25c-3.93,6.71-4.59,14.58-1,20.81a12.62,12.62,0,0,0,10.29,6.43c4,.08,7.84-2.27,8.95-7.7C70,42.18,64.43,35.12,56.4,31.87a25,25,0,0,0-4-1.25c.42-.62.88-1.22,1.37-1.81a28,28,0,0,1,21.7-10,38.14,38.14,0,0,1,8.89,1.05,42.14,42.14,0,0,1,8.52,2.94.48.48,0,0,0,.43-.85,39.3,39.3,0,0,0-8.6-3.49,37,37,0,0,0-9.24-1.15,29.56,29.56,0,0,0-23,10.42,26,26,0,0,0-1.87,2.52A25.52,25.52,0,0,0,33.16,33.6ZM50.39,51.42a10.94,10.94,0,0,0,8.84,5.52c3.32.1,6.4-1.8,7.42-6.23,1.8-8.11-3.39-14.59-10.75-17.61a24.77,24.77,0,0,0-4.26-1.3C47.77,38.09,47,45.55,50.39,51.42Z"/></g><path id="head" class="cls-1" d="M91.83,22.2,81.48,23.4a29.84,29.84,0,0,0-3.72.39,1.55,1.55,0,0,0-.5.16c-.4.29-.47.45-.44.63.12.88,1.26.52,4.82.25L92,24a16.39,16.39,0,0,0,3.09-.32,1.17,1.17,0,0,0,.84-.91,2.06,2.06,0,0,0-.71-1.21c-1-1-3.72-3.29-4-3.5l-3.62-3-5.88-4.87a.31.31,0,0,0-.44,0,.31.31,0,0,0,0,.44l5.32,5.53,3.44,3.21,3.25,2.94C92.65,22.28,91.92,22.19,91.83,22.2Z"/></g></svg>