<svg xmlns="http://www.w3.org/2000/svg" viewBox="0 0 78.82 78.82"><defs><style>.cls-1{fill-rule:evenodd;}</style></defs><g id="OBJECTS"><path class="cls-1" d="M5.81,57.12c.07.35.22.63.89.93,1.37.6,4.4,0,4.62-.06a47.77,47.77,0,0,0,6.81-1.89,83.1,83.1,0,0,0,9.58-4.27A67,67,0,0,0,37,46a58.87,58.87,0,0,0,8.1-7.43,51.16,51.16,0,0,0,4.13-5.15,57.41,57.41,0,0,0,6.88-13.58.27.27,0,0,0-.14-.36.27.27,0,0,0-.37.14,63.17,63.17,0,0,1-8.46,12.18c-1.38,1.59-2.8,3.13-4.3,4.6a73.79,73.79,0,0,1-8,6.78,75,75,0,0,1-8.78,5.7c-2.43,1.37-4.94,2.67-7.52,3.81a48,48,0,0,1-7.86,2.78L6.09,56.86C5.9,57,5.79,57,5.81,57.12Z"/><path class="cls-1" d="M54.57,36.17a1.63,1.63,0,0,0,1.93,1.68.3.3,0,0,0,.17-.06,3.12,3.12,0,0,0,.5-1.08,8.61,8.61,0,0,0,.37-1.55,29,29,0,0,0,.23-3.52c.11-3.08.74-6.72.76-10.12a19.24,19.24,0,0,0-.48-4.69,3.17,3.17,0,0,0-.37-.91,2.25,2.25,0,0,0-.57-.58,2,2,0,0,0-1.77-.27,7.08,7.08,0,0,0-1.9,1.22c-1.38,1.11-2.79,2.13-4.2,3.14s-2.69,1.85-4,2.79c-2,1.42-4,2.88-6.12,4.22a.67.67,0,0,0-.31.88.66.66,0,0,0,.88.3A57,57,0,0,0,48,24.05a57.41,57.41,0,0,0,7.14-4.92,20.58,20.58,0,0,1,.15,2.39c0,3.37-.53,7-.59,10Z"/></g></svg>